<?xml version="1.0" encoding="UTF-8"?>
<svg width="379.62" height="317.21" enable-background="new 0 0 379.625 317.208" viewBox="0 0 379.625 317.208" xmlns="http://www.w3.org/2000/svg">
 <g fill-rule="evenodd">
  <path d="m58.122,255.47c-3.173,5.458-3.807-1.651-8.628,2.286 4.06-11.806 8.248-7.616-10.66-3.427l8.755-4.44c-1.904-3.428-10.66,2.026-14.467.507 5.076-3.935 7.613-4.445 13.197-6.476-6.343,2.542-10.66-.885-17.639,0 9.137-5.326 13.325-4.44-2.412-4.44 48.096-15.863 2.157,2.159-1.522-6.599-1.142,0-2.284-1.269-4.188-1.269 19.924,0 27.157-1.396 4.442-5.965h-5.076c6.853-5.458 10.66-7.361 20.052-7.361-2.412-1.013-14.722,1.903-17.895-.379-.634-1.524 6.345-3.044 10.787-3.044-1.269.379-15.989-1.018-14.212,1.903 0-2.921 10.659-6.348 13.197-6.348-4.695,1.396-11.928-2.026-15.609-.634 3.046-2.41 11.167-3.427 14.34-4.44-3.807,0-4.949-.89-6.853-3.427-2.539,0-7.488-2.917-10.025-2.41 3.807-2.921 13.832-3.427 19.416-3.427-3.046-1.013-11.93-4.947-16.243-4.947 4.441-2.92 13.325-2.92 18.78-2.542-6.218,0-8.249-.885-12.055-3.934-6.599-3.044-16.625-2.282-5.965-6.723 14.594-5.458 19.29-3.683 23.096-2.158-5.076-2.031-19.035-4.824-25.761-4.062 3.681-2.92 14.467-4.317 20.05-5.33-3.679,1.396-18.782-1.524-22.588-3.044 5.71-4.44 10.025-6.472 16.751-8.25-5.204,2.157-8.883,2.792-14.848,2.919 13.198-15.483 35.533-11.421 53.172-17.259-.634-.383-11.041-.383-11.675,0-11.294,5.075-29.061-7.742-35.533-4.062 6.091-11.295 12.436-5.965 31.346-13.451 1.014-.381 3.806-1.396 4.568-1.016-15.609,0-33.63-7.614-46.447,5.203 0-13.451 9.391-16.498 21.066-17.26h14.593c-1.014.637-3.806-.253-5.203-.253-14.087,1.778-18.908-15.61-34.898-8.121 8.631-8.757 19.672-12.436 31.473-10.023 1.27,0 3.427,1.013 4.824,1.013 8.629,1.143-6.219-1.777-9.011-3.425-12.564-7.868-11.422-16.498-29.442-18.275 5.583-5.583 15.229-7.742 23.604-4.949l16.625,3.174c-7.36-1.78-15.355-1.905-19.163-7.363-5.457-7.74-10.28-21.319-21.32-25.506-.761,0-2.156-.76-2.918-.76 3.554-.637 14.34-2.284 17.385-1.271 12.818,4.57 14.213,7.996 21.194,20.559 0,.381 3.934,5.077 8.63,7.742 1.649.888 5.837,3.932 7.233,5.203-4.824-4.824-14.214-7.614-16.625-15.229-1.775-4.821-1.775-10.405-2.792-15.61-2.03-8.63-8.629-12.436-8.249-21.066 9.011,11.548 22.842,13.452 32.107,22.59 2.411,2.41.38,4.949 2.918,7.105l7.107,7.996c.506.379-5.331-6.093-7.233-7.996-3.046-10.405-4.569-19.163-11.803-27.284-3.171-3.681-16.242-12.817-8.247-10.787 14.467,4.694 12.182,3.553 20.685,14.211 4.568,5.711 7.994,10.407 10.786,17.26 .381.381 4.188,5.965 4.443,5.965 0,1.649-15.483-55.33-10.28-43.656 14.086,9.773 22.082,23.225 22.082,40.865 0-12.947 3.934-22.336 1.521-37.185 32.361,16.119 17.387,27.412 14.087,47.209 5.329-22.082 8.502-12.945 5.457-41.498 22.461,18.275 11.93,31.852 8.376,50.887 2.029-11.04 13.705-38.07 15.989-45.304 15.609,20.56 1.143,25.89-2.791,43.401-1.523,3.808-4.315,13.072-5.965,16.75 2.41-4.821 4.949-16.114 8.247-21.065 3.682-5.456 3.301-5.075 10.915-10.405 8.503-6.09 15.609-14.341 16.244-13.958 1.27,4.313-4.063,19.161-9.518,26.775-3.174,4.568-14.467,16.751-15.863,22.462 4.567-9.011 12.816-19.797 20.431-26.143l14.849-12.055-3.553,10.28c-2.539,7.359-9.518,21.698-17.514,26.902 4.061-2.665 6.854-6.471 9.391-10.405 2.539-4.189 18.782-18.656 24.747-18.656-2.792,2.665-14.595,37.31-24.112,36.676 6.092.506 14.722-16.623 16.498-21.319 0,0-.127-2.667 15.48-6.98 1.016,3.425-2.281,17.132-2.537,17.764-1.016,1.78-24.237,20.053-24.237,19.546 9.135-6.98 29.821-21.066 33.246-32.233 1.271-4.315 4.062,8.374 1.271,15.607-1.015,2.538-2.537,5.203-4.695,7.233-4.568,4.315-10.152,10.152-16.625,15.989 5.712-4.949 28.68-27.537 32.234-30.837l-7.63,19.164c2.663-7.361 7.233-16.117 11.927-13.073 3.556,2.412 5.205-2.791 6.982,3.683 .126,1.141-.509,2.284 2.031,0-2.284-4.824 4.693.504 5.584.504 0-2.156-1.524-3.425-2.921-4.44 .381-.888 3.046-4.947 3.809-5.456 4.187-2.665.888-14.085 6.852-8.249 1.65-6.98-1.649-1.522 4.189-2.918-.128-7.996 6.091-6.727 9.518-6.727 0-.76.633-2.791 4.568-5.456 6.472-4.188 3.807-3.3 12.689-3.427 3.809.255 6.093-2.284 11.676,2.665 5.075-5.331 5.71,3.299 10.405.634 0,3.3 4.443-.507 2.791,3.172 1.143,0 8.758-5.075 8.886-.507 3.806-5.077.634.635 5.328-1.396 4.695-1.649 12.183-10.405 17.641-7.612 4.442-1.905 11.548,2.791 14.467,3.806 6.979,2.41 11.802,10.787 16.497,15.736 0,0 .888,5.205 2.412,6.852 0,.381-.381.888-.256,1.269 1.524,1.652 4.952,3.936 5.077,6.854 .382,0 .763-.509 1.142-.509 3.934,4.062 6.854,8.883 8.758,13.705 .381,1.396 3.553,1.524 3.934,4.189-3.3,5.203-2.031,3.553 1.016,8.121-5.331.127-3.428-.379-1.905,4.062 1.143.888 2.667,2.412 2.667,3.678-.762,0-1.018.383-1.777.383-4.188-3.934 3.427.76-3.934.888 1.269,1.269 3.553,2.029 4.693,3.3-3.679,2.537-5.075,3.171.89,2.41-2.284,1.903-13.832,4.062-4.568,5.839-10.407,1.016-4.949.381-1.905,2.031-1.521,1.775.256,1.775 3.174,2.791 .382,0-9.645,1.777-3.174,1.777-.76.381-1.9.76-3.044.888 0,.381-2.284,3.172-2.539,3.681-.379-2.793-1.65.888-1.65,1.524l-1.9-.764c0,.509 2.028,3.681.125,4.189-.888,0-3.299-1.522-3.172-1.522 0,2.663-8.504,3.299-2.158,3.299-4.44,2.029-.381-.255 1.269,2.157 .254,0-4.44-.256-4.187-.256l-1.778.509c1.65,42.514-12.308,87.056-50.759,109.77 0,5.965 1.013,1.013-6.093,10.912-4.44,9.136-4.314,17.515-5.965,25.89 3.047,6.599 18.401,3.934 12.945,17.26-2.665,6.599-17.641,2.665-22.209,2.788 .253,11.423-17.133,3.555-17.514,3.3-2.79,3.172-12.308,4.316-19.288,2.793-11.421-2.538-19.797-20.811-25-27.916-5.33-3.428-10.407-5.335-15.484-9.393-7.993-9.771-7.233-18.783-7.867-29.823-1.142,0-3.426,2.41-5.203,1.903-1.521-.507-11.294-5.331-13.07-5.837-10.151-4.696-18.655-11.167-29.695-12.057-5.837.89-10.786,10.154-12.564,15.74-1.521,6.344-10.151,11.674-9.01,19.035-1.142,7.74-1.649,8.881-.126,15.863-.762,11.167 14.213,7.105 14.721,17.511 .761,3.555-1.016,4.823-9.011,4.568-5.584.762-8.883,2.409-14.339,3.683-21.32,4.313-16.371.886-22.336,1.013-2.792,3.045-14.975,2.159-18.782,1.396-4.062-.634-6.473-2.158-8.122-4.951-6.888-16.49-5.238-34.38-10.568-51.13z" fill="#745e3f"/>
  <path d="m57.995,224c-1.903,0 .381-1.018-1.016-1.018 1.016,4.445-2.031,11.55-1.015,15.484 2.031,9.516 2.157,19.921 5.583,28.934 3.426,8.881 2.665,17.383 4.696,26.775 0,2.03.508,5.079 1.523,6.599 3.806-.128 11.294-4.185 15.609-2.916 .889,0 2.411,2.026 3.298,2.537 2.412,2.41 18.783-2.286 17.26-7.867-1.015-3.428-5.71-9.903-4.949-13.833 1.396-4.951 6.473-10.154 7.741-15.105l-.508-4.058c-2.41-6.854-10.532-8.757-16.116-10.66-10.533-3.806-18.782-18.656-29.314-23.353-.882.01-2.785-1-2.785-1.51m56.985,76.9c-4.696-2.916-14.721-6.216-19.797-.635 .381,15.863 15.229,9.898 21.32,8.63 0-.634 1.014-2.158.888-2.537-.89-2.02-1.4-4.56-2.41-5.45m-18.533,7.49-.636-4.568c-.253-1.141-1.396-2.03-2.284-2.409-2.284-.891-6.726.127-9.01.634-2.285.635-9.391.512-8.375,4.568 .254,1.146 1.014,4.317 2.411,4.824 1.523.379 3.68.379 5.204.634 1.903.507 5.457,0 7.233-.383 1.269-.251 5.203-.758 5.584-2.41 0-.25 0-.75-.127-.88m2.284-188.07c-26.396.509-34.899,16.247-25.635,43.908 4.823,17.009 19.67,30.713 34.391,38.326 16.37,7.489 21.574,25.89 44.924,30.837 5.203,1.145 21.319,14.467 34.137-5.582 12.815-19.925-8.376-35.916-9.263-39.85-4.568-23.854 8.755-21.062-.382-44.034-13.832-30.836-59.009-19.163-84.01-25.002-2.926.11-5.843.11 5.831,1.38m106.22,1.65c-1.269,0-1.649-1.015-2.158-2.158 .762-.762 1.777-2.538 2.031-3.681l-1.016-2.156s1.271-.762 1.271-1.144v-.634c0-1.143-1.396-1.903-1.396-3.046 .635-.378 3.807-2.156 4.06-2.916 1.016-1.905 3.681-11.042 2.919-12.947 .255-.76.255-2.156 0-2.916-2.791,1.522-4.062,6.344-7.106,7.74-3.806,1.903-8.63,3.553-8.63,9.392-1.269,1.395-4.313,3.679-4.313,5.963-1.271.762-3.174,7.107-3.809,9.136l-4.314,11.169-1.016,1.141h-.634c-2.919-.76.762-12.436.634-14.211 2.539-.128 4.062-6.854 5.838-8.63 0-.762-.889-2.159-1.522-2.921 1.015-1.141 3.173-1.903 3.173-3.68l-.889-.888 .381-.253-.635-.762 1.016-1.015v-.76c0-.381-1.144-.888-1.396-.888-.127-5.458 8.502-4.824 8.377-9.645 2.03,0 5.074-3.681 6.471-5.203 .763,0 1.016.379 1.65,0 0-1.905-.382-3.299 1.396-4.443 0-.381-.509-.634-.509-1.015 1.141-1.141 8.63-3.553 10.404-2.793l.384.762c.76.381 2.791-.379 3.172-.379s.634.253 1.016.253c0,.76.381,1.141 1.396,1.141h-.635c0,.381 1.775,2.159 1.775,2.538v.762l-.76.762c.125,4.696-2.54,6.218-3.556,10.658-1.013,4.062 2.159,8.758 1.271,12.436-1.65,6.599-4.949,16.5-13.2,16.753 .02-1.14-1.12-1.78-1.12-1.52m37.95,79.31c6.346,1.141 40.988,28.678 50.127,24.872 34.898-11.546 52.156-42.132 59.011-78.172 0,46.322-31.602,87.185-55.077,111.8-5.711,6.348-7.233-1.648-15.737,2.286-8.121,3.678-18.401,8.502-18.02,28.044 .381,19.546 3.934,9.898 15.735,14.594 3.046,1.146 3.683,7.489-1.395,9.644-1.143,0-1.649-1.898-1.777-3.172-.128,8.502-10.152,6.599-12.183,2.921-5.709,5.074-14.593,2.665-21.066.762-11.42-3.176-17.132-24.365-26.396-28.811-18.022-8.881-24.621-21.951-17.26-41.242 1.016-3.171 7.616-10.405 10.407-11.674 9.39-4.568-9.646-25.383-.253-23.731 11.167,2.286 10.023-7.233 9.264-15.229-.25-1.9 9.52,9.01 24.63,7.11m62.3-152.03c.381.634 1.016,2.538 1.016,3.302 0,1.52-1.905,3.425-2.919,3.804-7.107,3.555-15.229-1.269-21.574,1.524l-14.467,7.742c-3.428,1.65-12.055,7.359-13.705,11.167-.634,1.522-3.302,6.09-4.951,6.853-2.41,1.269-12.309-1.652-14.974-2.412-1.649-.253-4.821-1.775-5.837-2.791 0-.89.381-1.143.381-1.905 1.269,0 2.029-2.284 1.903-3.425 .635,0 1.396-.507 1.775-.762-.126-3.044 5.205-7.359 2.793-9.898 1.016,0 1.777,1.143 2.791,1.143 .255-1.143.634-2.284.634-3.427 .89-.125 2.665,1.143 3.683,1.016 1.903-2.157 1.267-5.584 5.584-5.711 0-.381.76-1.269.76-1.522 .635.253 1.396.762 2.031.635l-.12-2.158c2.03,0 2.03-3.428 4.442-2.412-.128-.253.254-1.016.254-1.777 2.03,1.396 3.68-1.903 5.711-2.031 1.396,1.524 4.696-1.903 6.346-1.903 2.156-.125 4.44,2.54 8.121-.506 .126,1.015 4.821,2.409 5.202,3.553l2.031-.379c1.396,1.52 3.046,1.52 4.696,1.52 0,.256.76,1.016.76,1.016 .762,0 1.271-.379 1.649-.379 1.144,1.016 2.159.634 3.174,1.016l.382.379c0,.381.253,1.524.378,1.905 .891,0 2.287-.762 2.921-1.524 2.029-.128 3.044-.507 4.822-1.269 .253.381 1.269,1.141 1.649,1.015 .39-.764.9-1.779 2.67-1.399m-54.06,171.07c-3.046,6.855 3.554,18.278 9.899,11.295 2.156-.128 3.299,1.141 5.455-.128-4.44-4.45-5.71-14.72-15.36-11.17m47.34,80.45c0-.379-.888-1.141-.888-1.52-5.712-.384-3.3,4.44-3.3,7.74 1.903.762 4.188.634 5.712-1.018 0-.252-.382-.763-.382-1.142l2.284-2.537c-1.26-2.28-2.03-1.89-3.42-1.52m-9.9,1.79c-.379,0-1.142.506-1.65.506-.253,2.793 2.031,1.903 2.159,3.172 1.396,0 1.396-1.651 1.775-2.793 0-.379-.507-.885-.507-1.269l-1.77.38m1.65-13.72c-.128-.379-.379-1.141-.379-1.523-3.174,0-13.072-1.014-11.042,6.22l2.791,3.934c2.284.763 14.086.128 12.819-3.806 0-.88-4.95-6.34-4.19-4.82m-161.68,9.27c-1.27,0-4.822,1.146-5.966,1.652l-.252.251c-.508,1.396 2.284,4.823 3.552,5.202 1.017.128 2.158-.886 2.792-1.141 .382.255 1.017.255 1.27-.128 0-1.392-.38-2.665.508-3.679 0-.89-.761-2.158-1.016-2.665-.62,0-1.38.39-.88.51m3.94-1.65c-.634,0-.762.507-.762,1.396 .128.251.636.507.889.507 .761,3.171 2.539,5.33 5.71,3.934l1.016-1.141v-.384c-.253-1.013-1.269-1.903-1.776-2.537-.13-3.18-4.32-1.78-5.08-1.78m74.23-38.07c1.652,9.269 0,1.523-1.394,7.744l.125,3.172c.128,4.568 5.965,12.308 8.886,12.308 1.647,4.568 4.693,7.617 10.405,4.44-2.919-3.044-7.361-6.088-7.489-10.783-7.37-2.92-4.58-9.27-10.55-16.88m-134.77-125.63c-4.187.509-7.107-2.666-10.914-4.188-6.598-2.54-14.085-13.96-10.533-6.727 1.143,2.412 6.727,1.649-8.248,4.187l7.741,9.77c1.396,1.652-12.817-.507-17.513,2.033 4.187,0 7.994,3.679 12.689,3.679l-13.578,6.092c5.585,0 7.869,6.344 13.072,6.344-6.091,0-11.295,5.966-17.767,5.966 7.868,2.031 17.767.506 25.761.506-4.187,0-7.488,5.203-11.675,5.203 1.27,0 3.173.507 4.569.507 1.522-.507 4.695,0 6.598-1.013-4.188,4.696-11.675,7.233-17.386,10.277 6.218-1.013 9.899,4.696 15.482,1.524-7.487,0-12.564,4.947-17.64,10.533 4.187-3.044 6.471-1.647 10.66-3.679-1.903-1.018-4.695,3.044-6.09,4.568 4.694,0 10.785-2.537 14.086-6.22-1.904.634-3.301,6.22-7.107,6.22 3.299,0 5.203-.506 7.995,0 5.204,1.013 6.599-4.568 9.771-6.22 6.599-3.044 15.356-3.678 11.929-15.101-3.805-13.07-6.597-23.35-1.902-34.26m214.98,35.02c0-.886.763-2.031 1.271-2.41 2.79-1.146 4.946-4.317 2.156-5.586 0-3.299 8.755-3.554-1.777-5.71-.128-2.54-.888-3.172-2.791-3.427-.128-5.075-1.905-2.791-4.57-2.665-3.425-3.678.637-5.331 2.921-6.599-5.84-2.156-3.935,1.143.506-1.903 5.584,1.143 4.568,3.936 8.884,5.458 3.299,1.522 12.816-1.143 14.848,3.806 1.396,3.681 1.524,8.882 2.412,12.816 .634,3.811-1.144,10.41 0,14.088 .888,3.044 2.409,8.63 1.141,12.691-.634,1.903-3.172-1.652-3.172.507l-1.649,5.964c.507,1.018 1.143,3.172 1.143,5.331l-2.665,3.555c-2.03,0-9.264,2.282-11.295,3.044-7.361-3.427-10.786-2.665-15.482-10.41-1.396,0-5.458-2.661-6.853-3.423-7.232,3.678-8.502,12.942-13.325,3.172-2.031,0-4.821-8.502-4.949-9.899l-11.168,2.282-8.248-6.344-1.903.89-4.315-9.899c1.396-1.396 5.837-14.339 5.837-12.185 0-.758 1.396,2.031 1.396,1.396-7.486-8.375-1.396-6.345-1.521-7.614-10.789-5.458 11.295-2.41 3.934-10.026 0-3.551 1.142-9.262 3.807-10.659-.128-5.711-6.091-5.583.509-9.264-.128-6.472-4.189-8.375-3.556-10.659 0-2.159-.76-4.189-1.394-5.583-2.031,0-2.793,0-4.063-1.271-.127-5.709 1.778-10.786 1.65-15.608 7.486-.127 9.137-12.311 12.183,2.538-.762-2.031 4.696,4.949 5.458,7.105 7.612,17.513 3.425,40.356 11.04,58.503 7.614,18.277 12.436,10.789 18.02,9.52l5.58-1.52" fill="#b29061"/>
  <path d="m103.17,297.1c-1.904,0-5.583.763-5.711,3.044 .128,3.428 1.904,9.771-.127,10.917-3.045.379-1.016-7.872-3.934-8.758-2.285-.511-14.213.634-15.103,3.679-.38,1.396.89,4.316.89,5.837-9.519-1.142-10.534-5.331-11.803-11.419 0,1.393-.126-.89-.126-1.396l-.254-1.651c5.838-3.172 7.994-14.723.889-17.133-1.396-.379-.889,0-2.412-.379l.127-1.013c-.508-1.396-.635-1.524.253-1.524 5.838.886 16.118-4.823 19.924-.89-1.905,2.03-6.092,1.524-6.98,4.696-.508,1.902-6.853,16.497 9.264,16.242-1.014-1.014-.506,0 0,0 3.3.89 4.315-1.775 7.488-3.428l.381-1.013c.38-2.031 0-3.679-.128-5.71 .508,0 1.396-.506 2.412-.506 1.016,2.537 4.821,6.978 4.821,9.898-.38.5-.76,1 .13.5z" fill="#987b53"/>
  <path d="m131.6,236.44c0-1.524-11.929-15.357-13.324-10.661-5.965-6.093-17.767-10.533-25.254-13.582h-4.822c-1.396,1.652-3.173,1.396-3.934,4.824-1.777,4.952-1.27,8.63.253,12.436 0,1.524 4.568,7.617 13.452,10.533 9.01-2.282 27.158-4.568 35.279,5.714l4.314-6.348-.126-3.044c-.12-4.7-8.88-6.09-5.83.13z" fill="#987b53"/>
  <path d="m129.82,292.02c0,.512-.125,1.396 0,2.031-.38.383-.507.89-.252,1.269-.89.89-1.904,1.146-2.54,1.779l2.158.763c.127,0 .509-.128.889-.128 .381-1.141 1.015-2.537 1.649-3.428 .508.128 2.285-.255 2.665-.506-.761-.89-3.934-2.159-4.949-2.159 0,.128-.254.379-.254.507-.01,0 .5.39.62-.12z" fill="#b29061"/>
  <path d="m133,302.3c.254.507 1.016.886 1.016,1.52 3.427,0 5.837-.123 6.726-3.423 0,.251.254.379.254.635-.254.379-.382,1.269-.127,1.647-1.776,1.903-4.822,2.537-8.883,2.286-.127,0-.382-.762-.382-.89 .37-.27 1.77-1.53 1.39-1.79z" fill="#b29061"/>
  <path d="m125.38,259.78 4.188-1.142-.89,1.524c0,.89-1.143,4.947-2.03,4.947-3.554,1.269-9.391,5.713-10.914,10.154-1.269,3.555-4.187,5.837-2.41,10.277 1.776,4.695 6.219,7.488 7.994,12.313 0,.758 1.904,6.599 3.681,6.85 1.523,0 2.537.763 4.314-.251 2.157-.128 1.27-1.651 2.157-3.176 1.016.762.89,1.524.89,2.793-.381.507-6.98,3.683-7.741,3.683-6.726-.762-6.98-12.185-13.199-14.723-1.65-.89-7.233-5.713-6.853-7.739 0-.512 1.269-2.793 1.269-3.172 1.904-5.714 6.346-11.551 8.376-16.881 .889-2.282 10.66-9.393 11.929-5.837l.128.762-.508.507c-.39.01-.77-.49-.39-.88z" fill="#b29061"/>
  <path d="m255.84,266.13c-1.777,3.423-3.681,6.85-4.823,10.784-2.412,7.488-21.573,9.136-26.522,14.595 3.807,0 9.518-.763 12.689-.252 4.442.635 9.137,7.996 12.311,11.296 1.269,0 3.807-1.396 4.44-2.036-2.663-2.66-3.934-2.66-4.568-6.599l1.144-5.454c0-1.396-1.905-1.396-1.269-2.03 1.902,0 1.269-2.031 3.172-2.031 .509-.762 3.808.635 3.808-.128l3.044-2.665 1.903-3.427c-.125-1.269-.76-3.934-.125-4.691 2.537,0 5.711.634 7.614-1.524-1.903-1.903-3.934-4.696-7.108-4.568-1.394-3.3 1.269-6.599-1.015-12.563-2.4,4.7-4.05,11.94-4.68,11.3z" fill="#987b53"/>
  <path d="m202.16,229.45c.128,5.965-3.553,16.753-4.567,18.912-.888,2.282-2.284,9.898-2.031,11.925 .256,1.78 1.016,9.898 3.3,10.537 2.158.631-1.269-11.167 2.286-11.806 3.425-.507-1.271-5.581 4.44-7.229 5.837-1.652.256-3.811 4.696-2.287l-1.778-5.458c0-2.154 12.438-5.709 18.401-3.044l-8.377-4.317-3.425-4.819c-11.55-6.84-14.21-13.31-12.94-2.4z" fill="#987b53"/>
  <path d="m276.02,310.93c.763.128.256,1.647.891,1.903l1.269.251c1.775-.758 2.409-2.282 2.665-2.538l.128.128c.125,1.652-3.174,3.807-4.189,3.428-.763.251-1.65-2.793-.888-3.556 0-.12-.26-.37.13.39z" fill="#666"/>
  <path d="m236.55,293.29c-1.65.251-11.674,1.903-10.533,3.679 .888,1.396 3.809,5.33 4.442,6.978 2.919,6.476 10.152,11.551 16.242,12.185l6.98.891h-.38c.127,0 .509-.256.888-.256-.507-.511-1.395-.763-1.395-1.775l.507-.639c-.126-.507.381-1.141.381-1.647 1.143-1.142 5.077-1.775 5.711-3.044 3.425-2.159 5.456-3.556 7.361-5.842l-.128-.379c-1.016,0-5.711,2.793-6.979,3.3-5.203,2.286-9.137,4.062-13.833.762-.509-.379-3.553-2.92-3.934-3.555-.763-1.647-2.159-3.934-3.681-4.568-1.016-.379-.507-3.044-.507-4.185-.39-.01-1.15-2.04-1.15-1.91z" fill="#987b53"/>
  <path d="m292.89,236.94c.253.762-1.903,4.824-2.156,5.965-.509,1.524-3.427,3.679-3.934,5.33-1.903,5.203-8.124,11.674-12.945,13.961-2.03.885-6.346,14.718-8.883,13.449 0-1.142 2.03-13.071 5.075-14.719 4.695-7.867 8.376-11.678 15.103-16.625 .25.26 8.75-6.22 7.73-7.36z" fill="#b29061"/>
  <path d="m336.93,212.96c-.128-.634-4.696,5.079-2.54,5.837-7.36,7.868-6.09,4.317-12.688,12.947-2.159,2.917-4.568,5.709-6.6,7.233-9.898,8.63-13.198,14.846-24.493,21.445 2.665,1.396 20.686-12.942 23.984-14.339 14.086-6.727 20.688-24.744 25.762-36.167-2.03-.76-5.58,1.01-3.42,3.05z" fill="#b29061"/>
  <path d="m251.14,220.32c-3.046,6.855 3.554,18.278 9.899,11.295 2.156-.128 3.299,1.141 5.455-.128-4.44-4.45-5.71-14.72-15.36-11.17z" fill="#987b53"/>
  <path d="m226.9,92.526c.509-2.918 2.03-10.661-2.41-10.661 0-1.141-1.143.634-1.649,0-.635,0-2.665,4.317 0,.634 0,1.778-5.079-1.649-3.934-.509l1.649,2.412c0,1.143-3.174,4.696-3.174,5.33-1.142-1.141 3.809-4.821 2.158-4.821 0,2.412 3.935,2.412-1.779.634 5.204,2.92.762,4.187-1.521,5.456 .126,1.777-1.651,1.777-.508,2.92 0,.507-2.284,1.269-2.791,1.775 .507,0 1.647,1.269 2.281,1.143-.634.125-2.79,1.269-2.79,1.775l2.918,3.046h-1.141l-7.361,7.486c.507,0-.634,2.793 0,2.793-1.649,1.903 3.555-1.269 4.696,1.65-3.3,3.553-8.502,6.725-8.377,10.786 .635.634 5.84.509 6.346,1.143-2.665,3.046-12.308,3.679-8.883,7.234-.381,1.775 6.346,5.203 4.696,6.98 1.143,0-4.315,4.06-3.175,4.568-.506.634 3.3,2.537 2.666,2.537l1.269,1.269c-1.142,0-1.775-.507-2.791-.507-1.144,1.141-1.144,1.647-1.144,3.427 1.144,1.269-1.141-7.235 0-6.727l.635,11.927c0,2.413 1.269,3.047 2.921,3.554-1.144,1.269-5.458,4.44-5.331,6.22 .507,0 4.188-2.665 4.822-2.665-.635,1.269-8.121,5.581-7.993,7.356 1.141,0 3.171,6.982 6.597,9.269 .128,3.551.128,5.326.253,8.247 4.952,1.647 3.174.506 3.3,5.202 1.143.507 7.233,1.652 4.317,2.159l13.958,2.666c1.015,0-6.725,4.696-6.091,4.185 0,1.146 4.949-8.753 2.156,0 .509,0 0,0 3.935-4.185 0,.634-8.756-3.3-5.456,1.141 2.79,1.141 9.771,12.691 7.995,8.63 2.284-1.269 1.395,1.141 4.188-1.903 0-.507 1.141,0 1.141-.507l1.524-1.903c0-1.146 8.502,2.916 8.502,1.647 3.425,0-1.016,6.599 5.203,6.471 0,1.141.634,1.775 1.143,2.287 1.142,0 2.156-.511 3.3-.635 4.568,4.696 11.293,5.203 17.513,5.075-6.346-13.577-20.559-24.621-27.03-39.339-7.107-17.004-13.579-33.377-17.26-51.019-1.777-10.152 3.553-23.856 1.144-33.883-.03-1.304-1.81-3.588-.67-1.811z" fill="#987b53"/>
  <path d="m344.8,154.96c2.409,1.523 3.299,3.938 4.821,5.585 .128,6.471-1.522,9.771-5.965,14.722v7.105c-4.568,4.947-7.361,12.692-7.233,19.163 0,0-6.853,7.612-7.614,7.612 .128,4.44-1.144,4.317-7.487,8.885-6.218,4.568-15.863,4.44-18.909,5.709-5.709,3.044-7.74,6.093-13.832,7.361-6.219,1.396-3.679,1.013-10.405-.89-5.331-1.647-.128-7.357-7.742-3.172-2.284-2.41-9.137-2.031-9.265-6.092 1.524-1.775-8.63-6.472-9.518-8.119 .763-2.414.763-3.299 2.284-4.952 7.742-.127 17.132,8.758 26.271,6.982 27.031-6.982 54.44-31.982 65.482-59.139l-.89-.75z" fill="#987b53"/>
  <path d="m290.99,310.93c1.778-2.286 2.031-5.586 1.522-5.965-.507-.256-1.016,1.52-2.663,2.031-1.649.127-2.921-.128-3.809-1.524-1.141,0-1.141-2.41-2.284-3.428v-2.281c-2.79-1.146-3.934-6.982-5.583-6.854 0-2.41-.635-9.265-1.777-7.489 1.015-2.916 1.143-3.679 3.934-7.105 .253-.251 2.158-1.775 4.188-3.935 2.158-2.03 6.599-3.551 9.266-3.551 2.156-5.33 6.091-13.453 10.912-17.638-4.06,1.898-7.993,5.074-12.562,6.595-4.442,1.272-9.139,3.683-12.691,4.062-12.055,1.141-16.751,15.99-14.339,28.555 1.775,11.039 7.612,6.978 14.211,12.436 1.903.379.381,6.979 6.093,6.221 1.27.25 4.31.75 5.58-.13z" fill="#745e3f"/>
  <path d="m290.23,296.08c-2.791.763-7.74.763-10.786-.379l-2.284-.634 .126,2.282 .509.639 5.33,1.392 4.06,2.41c.634,0 2.667-1.648 3.174-1.648 1.649-1.774 7.233,1.396 7.614-1.902 3.425-.89 2.919,1.269 5.203,2.537-.888-2.158-1.522-3.427-3.935-5.709-1.649-1.652-7.361-3.683-8.123-3.555-.64.12 6.85,2.53-.89,4.56z" fill="#b29061"/>
  <path d="m173.22,164.61c.636,5.458 9.012,11.546 10.406,16.876 1.523,5.331 3.808,10.661 5.331,15.612 1.522,5.203 1.901,13.194 3.045,17.766-2.028,4.185-4.061,5.582-5.584,10.277-1.522,4.568-11.803,5.075-11.803,5.075 0,1.652-9.01,10.026-7.74,8.63 23.099,16.37 40.737,7.105 35.913-14.595-4.696-18.528-22.335-43.145-16.878-64.973 1.396-6.091 15.864-50.888 8.504-52.285l-3.681-3.681c-4.315,0 4.949-4.949 12.311-12.436-26.017.634-58.376,9.898-83.251,4.314-19.542-4.442-58.375,2.159-62.055,42.641 13.198-.255 24.874-21.828 38.326-8.123 4.441,0 25-2.031 27.791-3.553 4.442,1.396 16.244,5.964 20.686,5.837l1.396-1.522c2.918-.128 5.837,1.396 8.883-.128 5.837,6.092 16.371,19.925 13.578,27.539 1.65,3.15.38,6.71 4.82,6.71z" fill="#987b53"/>
  <path d="m106.22,260.17c-20.304-4.189-12.309,19.035-10.406,25.506 1.016,3.045 1.143,5.459 3.555,7.996 0,0-1.396,4.189 1.015,3.427 3.68-1.018 15.989,3.3 15.102,9.265 .127,1.014-.255,2.793.253,3.806 5.965-1.396 3.935-7.36 3.047-10.788-1.523-4.947-8.63-6.471-11.93-7.361-7.613-2.916-6.092-21.951-4.188-27.916 .38-1.42 2.67-2.94 3.56-3.95z" fill="#987b53"/>
  <path d="m348.73,124.89c.635-.762 3.3-1.524 4.06,0 1.396-.255 1.524-2.286 2.412-3.299-.888-1.524.506-1.524 1.269-3.809 .509.253 1.143.762 1.777.762-.381-.509-1.144-1.015-1.144-1.777 2.284-1.269 4.315,1.777 3.809,3.553-.762,3.174-4.57,9.773-6.599,12.057-3.56-1.01-4.32-4.69-5.59-7.48m-14.59-81.348c-.381.76 1.269,2.663 2.537,2.663 .382,1.016 1.778,1.778 2.412,2.793 .635,1.016 1.144,2.791.128,3.681 .507,0 .635,1.395 1.267,1.395 0,1.143 2.54.255 2.158,1.524-.381,1.524-2.665,3.172-3.806,3.934 0,1.522.125,2.793 1.775,2.793 .255-.383 1.016-.256 1.523-.509s.761-.507 1.395-.634c.509-.128 1.144-.128 1.905-.253 .635-.128 1.142-.888 1.903-.888 .635-.128 1.396.506 2.031.506 .76,0 1.521-.381 2.156-.253 .634,0 3.427,1.269 3.934,1.775 .381.509-.76-1.647-.381-1.522 0-2.031-5.837-4.315-5.965-5.583-.507-.381-1.014-1.777-1.395-1.903l-.634-2.54c-.509-.126-1.396-.76-1.778-.76-.506-.634-.634-.89-1.269-1.015-.381,0-.762-1.016-1.143-1.016-1.903-.888-3.553-2.412-5.328-3.427h-.256c-.126-.632-2.028-1.015-2.412-1.015l-.76.254m17.51,52.156c2.791,4.187-8.123,1.269-2.283,4.952 .381,4.187.253,6.471-1.524,10.403-.126,2.793-5.203,9.901-8.628,12.438-1.144.762-6.602.635-8.123.635-.763,1.269-6.346,1.269-5.837.253 .76,0 1.141-1.269 1.396-2.031-.637-.379-1.777-.888-2.538-.379-.383-.381-1.143-.764-1.523-1.269 1.141-1.143 4.314-3.808 5.837-3.299l1.902-2.159c-.506-.381-1.141-.762-1.521-1.141 0,.379-.76.76-1.144.76 0-.381-.76-1.269-.76-1.65 .76,0 2.156-.762 2.156-2.031-.381,0-1.141-.379-1.775-.379 .635-1.271 1.016-2.54 1.775-3.809-2.665-1.143-5.202,1.269-7.74,1.396 0-.762.635-1.652 1.016-2.031l-.762-.89c0-.379.381-.76.381-1.141-1.144-2.538-4.821-2.41-8.63-5.203-1.777-.634-3.934-.381-3.425-.381-4.57-1.016-7.233,1.396-11.423,2.031-1.016.634-1.65,2.031-2.156,2.031l-1.144,2.663c.256,2.284-1.903,4.442-1.903,4.442-2.03,6.346-.506,4.568-1.649,8.249 1.396,4.568 3.553,3.299 7.995,4.949-2.918,2.791-15.609,6.09-18.653,3.678-8.63-4.691-7.108-7.74-6.854-10.277-1.396-1.777 1.015-4.062-.635-3.681-1.777.507-2.156.762-1.016-3.044 .888-3.299 1.65-4.062 2.412-5.333 .635-1.394.888-1.141 3.046-2.791 2.919-2.284 12.943-5.328 20.177-7.487 2.158-.634 6.474-5.203 6.346-8.121-9.646,10.28-7.74,4.315-5.331,1.522 .635-.762 1.016-1.903 1.396-2.918-1.396-2.793 2.412-6.471-1.396-8.251-1.394-.504-7.486.255-7.486-1.901-.509-.255-1.269-.509-2.031-.634-.76.506-2.156,2.535-2.03,3.678 .762,5.077-6.725,3.936-7.614,7.361-.507,1.649-2.156,3.427-2.41,5.075 .76,1.78-.762,3.174-1.524,4.57 .382.76.763.888 1.27,1.396-.635,0-1.142.632-1.65.76-1.269-1.396-3.297-3.3-1.775-5.075-.381-.255-1.016-.89-1.269-.89v-.634c-.509-.507-1.016-.507-1.396-1.269 .128-.506.254-1.015.635-1.396 .381,0 1.015.128 1.269.509 0-.509 1.016-1.271 1.524-1.271 0-.504-1.396-1.269-.891-1.269 0-1.269 2.54-2.284 2.54-3.553 .126,0 .507-.379.888-.379 0-.127-.128-.255-.128-.509 .254-.381.763-.506 1.269-.762l-.379.381c.507-.381.888-.888 1.27-1.269-.382,0-.51-.127-.635-.381 .635-.634 3.806-1.269 3.934-1.775v-.381c0-.128-1.016-.509-1.143-.888 0-.509.509-1.905.762-2.286l3.553-2.793c-1.777-.504-4.188-.632-6.471.509-.382,1.903 0,4.062-.891,5.711-1.269,2.412-5.202,1.775-6.471,6.343-4.315.509-7.74,4.189-18.147,6.093-2.156,4.187-11.04-2.031-6.853,4.696 1.141,3.425 5.584,4.949 6.599,7.361 7.233,17.638 2.284,40.101 9.899,58.247 7.614,18.277 20.557,1.775 29.695,11.167-.128-.762-5.33-5.203-4.821-5.582 2.284-.89 2.409-2.793 4.187-4.696l-2.03-.89c0-1.524 2.665-2.538 3.806-2.538-1.649-1.776-3.046-2.664-5.583-3.173-.128-2.54-.888-3.172-2.791-3.427-.128-1.903-.635-2.791-2.031-3.681-.509.256-1.777,1.016-2.539,1.016-3.425-3.678.637-5.331 2.921-6.599 .888.255-4.315-1.647-3.428-.125 .635-.89.635.506.888-.125 .635,0 2.54-1.271 3.046-1.652 3.047.634 4.443.634 5.965,3.68 1.142,0 2.031,1.522 2.919,1.778 3.299,1.522 12.816-1.143 14.848,3.806 1.396,3.681 1.524,8.882 2.412,12.816 .634,3.811-1.144,10.41 0,14.088 .888,3.044 2.409,8.63 1.141,12.691-.634,1.903-3.553,2.282-4.949,5.331-.635,2.158 1.271,4.313 1.271,6.471l-2.665,3.555c-2.03,0-9.264,2.282-11.295,3.044-7.361-3.427-10.786-2.665-15.482-10.41-1.396,0-5.458-2.661-6.853-3.423-7.232,3.678-8.502,12.942-13.325,3.172-2.031,0-4.821-8.502-4.949-9.899-9.646,1.652-7.74,9.899-8.628.762 1.395,0-10.788-3.299-10.788-4.824l-1.903.89-5.584-13.454c.635-4.185-8.376-17.131-8.376-19.288 5.202-1.018 1.015-11.295.381-11.295-.128-6.346 1.903-3.806 3.174-10.152-5.586-5.583-8.126-.128-2.921-5.965l-.125-5.33c.76-.762-.763-9.899-.128-10.661-1.396-2.791 1.903-7.868 3.934-10.024-2.665,0-4.696-4.187-2.156-4.949 0-.634 4.188-.381 4.06-1.143 .634,0-1.269-2.918-.635-2.918l-2.156-3.044 4.062-.128-2.411-4.315c5.202,6.98 14.085,7.233 22.081,7.996 4.314.506 5.583-4.824 3.044-4.696-2.663.127-12.309-1.652-14.974-2.412-1.649-.253-4.821-1.775-5.837-2.791 0-.89.381-1.143.381-1.905 1.269,0 2.029-2.284 1.903-3.425 .635,0 1.396-.507 1.775-.762-.126-3.044 5.205-7.359 2.793-9.898 1.016,0 1.777,1.143 2.791,1.143 .255-1.143.634-2.284.634-3.427 .89-.125 2.665,1.143 3.683,1.016 1.903-2.157 1.267-5.584 5.584-5.711 0-.381.76-1.269.76-1.522 .635.253 1.396.762 2.031.635l-.12-2.184c2.03,0 2.03-3.428 4.442-2.412-.128-.253.254-1.016.254-1.777 2.03,1.396 3.68-1.903 5.711-2.031 1.396,1.524 4.696-1.903 6.346-1.903 2.156-.125 4.44,2.54 8.121-.506 .126,1.015 4.821,2.409 5.202,3.553l2.031-.379c1.396,1.52 3.046,1.52 4.696,1.52 0,.256.76,1.016.76,1.016 .762,0 1.271-.379 1.649-.379 1.144,1.016 2.159.634 3.174,1.016l.382.379c0,.381.253,1.524.378,1.905 .891,0 2.287-.762 2.921-1.524 2.029-.128 3.044-.507 4.822-1.269 .253.381 1.269,1.141 1.649,1.015 .381-.762.888-1.777 3.046-1.396 1.903-1.903 1.016-.381 3.172-1.141 4.44-1.524 7.487,2.157 6.853,3.934 .381,0 1.269-.381 2.031-.127 2.665,0 2.411,2.92 4.314,1.015 3.3,3.553 6.218-1.015 6.346,6.346l1.396,3.806c3.3,3.553-.256,2.412 1.395,4.44 2.03-1.775 6.218-3.553 7.742-2.156 .634,0 3.172-1.396 4.821-1.141 1.522.253 3.934,1.903 4.568,2.029 5.711.637 6.218,1.396 9.011,2.667 3.172,1.141 4.696,4.44 5.584,7.612 .76,2.666 5.709,2.159 5.709,6.727 2.54,1.777 4.951,5.711 5.711,9.264 0,.507-.634-.634-.634-.255-2.41,0-14.467-5.201-14.467-4.313-.763,0-4.188-3.555-.888.635-.762,6.09.76,1.777-4.442,3.806l-2.666,1.015c-1.269-.253-4.949-2.412-6.471-2.031-3.046.888.253-3.044-2.538-3.806-2.411-.762-7.36-2.159-7.488-5.458l-.507.509s-5.077-2.412-5.584-2.156l.254.253c-.76.379-2.156-1.396-2.793-1.524l-6.091-2.156c-1.902-.637-3.427-5.584-5.455-4.188l-.256-.509c-.507,0-1.269-1.015-4.313-.506-1.144,1.522-3.681,2.41-5.205,2.41l.762,10.279c1.65,4.95.635,3.172 6.853,6.346 .763,0 2.284-.635 2.793-1.144-.128-2.537-3.174-3.806-3.174-6.599 1.905-2.41 4.442-1.775 6.853-.76 0,5.709 3.555,3.934 6.854,4.949 2.284.76 5.837,1.775 7.612,3.806 .383,0 .128.509.383.509 4.188,4.315 6.851,3.172 11.674,4.315 1.07.251 5.51,1.011 6.4-.258m-2.54,54.572c.256.253 1.905-2.412 2.286-1.777 1.014-.634 1.269-2.791 1.014-3.681 1.905-1.65.381-1.65 2.158-1.65l3.046.256c0-.256-1.649-2.033-1.649-2.284 .253.251.76.506 1.269.506 0-2.412-4.949-3.934-6.346-4.442-1.903-.888-4.696-2.157-5.202-2.412-2.284,0-4.443-.506-6.6.383-1.649.632-2.665,3.806-4.568,3.806 0,1.141-1.649,1.903-1.649,2.791l.888,3.046c-.126.509.634,1.905 1.016,2.031 1.775.762 1.396,1.903.762,3.553 .381.381.76,1.016.253,1.524-2.03-2.159-6.599-4.696-9.772-3.299 .381-1.778 7.361-9.646 3.174-10.661l-.635,2.409c-.381,0-3.553-3.299-3.553-2.916-11.804.125-7.614,21.448-4.949,29.822 0,.886.888,3.3.888,4.189 1.777,0 3.807,2.789 5.456,2.41 2.031,1.903 3.934,2.154 6.727,3.3 1.903.762 5.203-1.78 6.6-.383l.888-.124c1.523-.383 2.03-1.273 3.046-3.048 1.144-1.903 1.777-4.189 1.522-6.22 0-.502.89-3.295 1.143-3.806 1.144,0 .888,1.907.888,2.793 .635,0 .763-1.141.763-1.775l-.128-5.079s1.015-2.026-.507-3.805c-.253-.253.381-.762-.381-1.903 .634,0 .888.634 1.902.381 1.65-.255 1.144-2.031 1.144-2.412-1.03-.4-.52-.65-.9-1.54" fill="#b29061"/>
  <path d="m309.26,152.04c1.016-1.775 2.284-1.65 3.555-.888 1.903.888 1.016,3.553.635,4.568 1.395,1.523 1.395,1.902.76,3.682 .128.124-.888,3.295-.76,3.551v1.652l.76.762c-.253,1.775-1.395,2.41-1.775,3.423-.253,1.018 1.141,3.811 1.775,4.317 0,.762.128,1.141 1.144,2.282 2.156,2.669-1.27,1.524 1.777,3.683 0,.762 1.647,4.568 1.903,5.458v.251c-.128,1.018-3.681,3.172-4.443,3.172 0,.256-.125.383-.125.507-1.144,0-1.144,2.92-1.778,3.683l-.506-.383c-1.144,0-2.412,2.035-3.556,2.035 0-.766-.125-1.907-.506-2.542 .634-.634.762-1.775 1.396-2.282-.382-.511-1.27-.255-1.778-.255 .254-.255.763-.762 1.144-1.013 0-.255-.509-1.146-.635-1.396 .126-.255.254-.506.379-.762 0-.506-.253-.762-.253-1.013 .888-.511.635-1.273.635-2.414 .253,0 .509.383 1.015.383 0,.251.128.379.128.507 .253,0 .507.251.888.251 0-1.269-2.284-2.41-2.284-2.917-.381,0-.762.128-1.016.128-.253-.507 0-.89 0-1.396 1.016,0 2.159-2.41 1.778-3.427l.253-2.665c.507-1.269.128-3.427.507-4.44-.76-2.159.509-6.472 0-8.758-.507-2.282.255-4.186-.635-6.345-.38-1-.63-.61-.38-1.38m41.25-53.423c0-.125 0-.762-.381-.762s-.254,4.189-1.27,2.795c-.381-.765.51.76.128,1.394-.381.507.382,1.016.126,2.284-.254.634-1.395,1.905-1.522,2.538-.125.636.382,1.396.254,2.031-.126.762-1.142,1.524-1.269,2.031-.126.634-.254,1.143-.382,1.522-.125.888-1.775.637-2.028,1.396-.256.762-1.271.381-1.649,1.016-.256.634 1.902,2.156-1.144,1.143-3.046-1.143 0,3.044-.762,3.425-.635.255-1.142,1.143-2.284,1.775-1.016.509-1.395,1.396-2.031,1.524 0,.127 0,.255-.253.255 0,.888-.126,2.156-.381,3.299-.126,1.141-1.142,1.648-1.395,2.41-.128.762-1.018,1.144-2.031,2.159-1.015.888-2.158,1.903-2.665,2.156-1.016.381-2.284,3.427-2.411,4.443v.253c0,.253-2.031-.637-.507.379l2.284.636c1.394-.381 2.156-2.031 3.299-2.54 1.396-.632 2.031-2.029 2.031-3.553 3.425-2.031 5.328-7.359 8.628-9.137-.254-.506 2.284-1.269-.507,0 .381,0 4.696-3.174 3.681-.762 0-.507.76-10.787 3.044-3.3-3.298-4.059 2.158-2.156 4.189-3.553 1.903-1.396-.89-5.331 1.269-6.599 4.315-2.412 4.44-3.299-1.522-7.359-1.143-.764-1.015-3.681-2.539-3.681 0,.631.25.886 0,.378m-8.38-19.923 2.791,3.934c1.396,1.775 1.396,3.427.89,6.09-.636,3.681 3.172,6.98 6.219,8.632 0-1.143.888-2.286 1.141-3.299 .762-1.905 1.777-.128 2.412.632 1.269,1.271 5.33-1.396 3.806-3.044-2.284-4.189-4.44-6.092-3.934-4.824s-2.156-2.412-1.141-2.412c1.141,0-1.905-3.425-2.793-3.044-1.016.506-.635-2.031-1.016-1.144-.507.888-2.919-1.649-3.934-2.156-.635-.128-1.016-1.269-1.522-1.524-.381,0-2.537-.632-2.537-.127-2.54-2.41-2.284,0-3.3-1.141 .126,0-2.031,1.141-.635,1.778l2.538,1.143c.12,0 1.52,1.394 1.01.506m-2.66-15.229c-1.523,0 1.775-2.156 2.665-2.537 1.016-.507 2.41-1.65 4.188-1.903 1.903-.255 4.44-1.396 5.456-1.396 .762,1.016 2.921,1.903 2.665,2.538 .763.381 2.284,3.934 2.284,4.568 0,.762 1.144,3.046 2.031,3.555 .128,3.678-8.884.506-9.137-1.144-.635-1.905-.888-4.315-2.412-5.837-1.775,0-7.486,1.396-9.137,2.412-.14-.256-.52-.637 1.39-.256m-30.59-15.101c.76,0 2.918-2.537 3.679-2.284 1.271-.89 8.248-5.837 9.645-4.189l-3.299,2.667c.381.125.888-.127 1.269.125-.126.381-3.807,4.568-2.665,3.3l2.158-1.903c.253-.127-.128.125 0-.127l-.128.253c-.381,1.016-.762,1.016-1.396,1.778 0,.253-.506,1.903-.634,1.65 .381,1.269.381,1.015.255,3.171 .126-.125-.762-.378-.762-.887 .128.636-.888,1.015-1.144,1.396-.253.76-4.314-4.568-4.693-4.949 0-.255-1.91-.001-2.29-.001m-34.39,10.152c-1.777-.634-3.807-2.158-5.33-2.412l-.763.762c-.634-.381-1.395-.762-2.028-1.522-1.396,0-2.919.76-4.315.126 .254-.381 2.284-2.284 2.284-3.044v-.762l-.762-.762c.762,1.903 3.427,3.299 4.821,1.777 0-.762-.379-1.015-.379-1.777 .379.381 1.016.637 1.269,1.016 .382-.76 0-.379.382-1.016 .379,0 .634.255 1.015.255-.127-1.524 1.269-1.524 2.284-1.143 0,.381-.381.76-.381,1.143 .76.381 4.694.253 5.709.253 0-.637.256-1.396 1.016-1.143-.381-.253.635,1.143 1.016,1.143 0,.379.381.76.381,1.143 1.016,0 1.649-.383 2.284,0 .253-.127.635-.383 1.016-.383 0,.256.381.634.381,1.016 .635,0 1.649-.76 1.903-.76 1.143.378 1.777,3.427 2.793,3.678 0,.381 1.013.381 1.013-.76-2.663,1.522-7.105-.255-10.024,1.014-1.64.255-4.56,2.92-5.58,2.158m-21.95,9.773c2.412.76 5.712,4.314 7.489,6.218-2.031,2.284-2.412,1.901-2.412,5.075l-.635.762v.76c.382,1.271 1.396,3.174 1.524,4.696-1.016,1.143-2.158,2.031-3.174,2.412 .762,0 1.396.381 1.777.381-3.808,1.903-12.691,0-16.116-1.016-1.777-.381-11.676-5.586-11.423-7.614 .256-5.584 14.467,2.412 16.625,2.284-.762,0-1.141,0-1.396-.381l2.54,2.538c-.509-.379-.762-1.141-1.144-1.522l1.396-.125-.762-.637c.381-.888 1.016-1.269 1.775-1.647-1.395-1.524-7.487-2.667-7.487-5.711 2.031,1.522 5.584,1.522 8.377,1.396-.253-.381-1.649-1.143-2.412-1.524 1.016,0 2.412.762 3.556.634-.384,0-.763-.253-1.144-.253 .381,0 .76-.507 1.144-.507-2.159-2.286-4.189-2.031-6.346-4.315l-1.524-1.269c2.793-.128 8.123,2.537 10.914,3.297-.381,0-1.016-.76-1.395-.76h1.395c-.381-.381-.76-.762-1.395-.762 .635-.378.635,0 1.395,0-.381-.378-1.016-.887-1.395-1.269 .62-.381 2.01-.381.24-1.141m12.44,38.201c-2.031,0-5.077,1.141-6.093,2.284 0,3.55 2.159,2.282 2.159,4.566l.125,2.284-2.156,2.412 2.665,5.583c1.141,5.712-1.269,10.789 3.934,14.976l3.3,2.54 4.188,2.284c0,2.284-.507,4.947 1.524,5.583 2.028.76 2.663,3.551 6.09,0l-1.903-1.396 3.172,2.031c.509.381 3.681,3.806 4.062,5.583 .509,1.523-2.158,4.439-.509,6.981 1.65,2.41 3.935.758 5.458,2.789 1.396,1.907 1.396,4.696 2.031,5.33 2.791,2.159 8.249-11.04 4.568-12.057-.128-10.15-16.879-21.318-23.097-24.745-11.421-6.599-7.361-23.604-12.563-29.187l3.05,2.18m72.2,15.99c-4.062,4.313-6.092,3.808-12.057,4.187-6.472,0-11.93-5.962-19.163-3.172-3.044,1.141-10.279,10.661-24.109,3.934 4.32,18.14 48.48,21.95 55.33-4.95" fill="#987b53"/>
  <path d="m289.34,135.04v.635c.76.125 1.144-1.016 1.903-1.396 .381,0 1.016.506 1.524.506 4.059,8.376 20.938,3.048 26.521,1.143l8.374-2.284c-.76-.378-4.313,5.331-5.456,5.711s-2.156-2.031-3.299-2.158c1.143,1.524 3.172,1.903 4.568,2.031 3.046,8.376-5.71,16.878-3.426,24.748 .254,1.396 1.269,6.978 1.903,7.868 2.284,14.846-3.046-6.727-3.681-9.898-.507-3.683 4.315-16.118.635-17.64-1.522-.637-10.914.506-7.74,3.553 4.314,4.187-1.396,35.915-3.934,30.963 1.775-5.582 1.141-13.07 1.521-17.894 .507-4.821-4.696-7.995-8.121-10.911-4.823-3.809-12.057-12.183-9.52-10.917 .03-.38-.61-4.82-1.75-4.06m16.24-16.12c-6.979.383-10.66,11.423-20.685,7.742-2.158-.634-5.586-3.553-7.107-2.284-.128,1.65 0,3.806 1.015,4.95 3.809,4.314 10.28,7.235 8.121,2.665-.762-1.141 4.315,1.271 6.6,2.412 0-1.649 3.427.379 3.299-1.269 1.144,0 5.584,1.522 5.331.76-.507-.506.634-1.775.253-2.918 1.144-.506 2.159,1.778 4.062,1.778-.381-.888-1.016-3.046-1.396-3.427l2.919.762c-.76-.89-2.919-2.412-3.681-2.793 0,0 2.158,1.144 2.539,1.144l-1.902-2.031c.76-.381.76,0 1.394,0l-1.774-2.031-.382.381 1.522,1.649-.126-1.649c.507.381.76.888 1.65.762l1.394-2.031c2.919-.127 2.793,2.793 4.568,3.934l1.396-2.031h.763c.381,0 .762,1.269.762,1.65 .76,0 2.409-.381 3.172-.381 1.141,1.269 1.521,1.65.634,4.443l1.903-3.681c.381.888-.253,1.65-.253,2.54l1.143,2.029-.762-.888c1.016-.762 2.919-.762 2.919-.762l-.128,1.269c-.379.888 1.649-2.156 1.649-.888 1.144-.127 3.555,1.016 4.442.128 .635,1.647.126-2.92 1.27-3.299l-.635,1.394 .635-2.031c1.141-1.269 4.44-3.553 5.837-3.553 0-2.031 2.411-5.584 1.649-7.233-2.919,3.299-4.821,6.98-9.644,8.502-4.442,1.269-10.153-1.141-13.579-3.553-2.39-1.65-5.05-4.32-10.77-2.16m-4.18-61.039c0,1.396.891,9.011.256,9.899-.762,1.015-1.524,2.54-2.158,2.54 .253,0-1.65,1.647-.382,1.775-.506.509 1.65.509 1.27,1.269 1.015.634.509.253.255,1.65l1.65-1.016c0,.762 2.284,5.203 2.537,4.821 .888,0 0-1.396-.635-1.396 0-.378.507-1.394 1.775-2.409 1.271-.89 2.793-.762 1.777-.762 0-1.141-.506-1.141-.634-2.157l-1.144-.888c0-.383-.888-.383-.888-.762-.634,0-.506-1.522-1.016-1.522 0-1.399.128.125.51-1.524l-1.27-1.269-1.92-8.249m-28.18-.253c-9.898-7.107-19.037-.381-18.782,12.309 4.949-.125 12.311,2.412 17.258,2.412-.13-5.456 0-10.153 1.52-14.721m-7.36,1.141c-.507-.253-1.141-1.141-1.65-.888h-.506c-.509,0-.254.634-.254.888-.381,0-.762-.253-1.143.128 0,.253.253.509.253.888-.507,0-1.016-.379-1.521-.379 0,.634.253,1.015.506,1.266-.506,0-1.141.256-1.649.381v1.143c-.76,0-1.395,0-1.903.634 .509,0 1.396.634 1.65,1.016-.507.506-1.142.888-1.775,1.143h1.141c-.253,0-2.665.634-.888.634-.253,0-.762.381-1.016.381 0,.251.507.888.507.888-.507,0-.76.381-1.016.632 .509,0 1.016.256 1.271.256-.256.253-1.65,2.792-2.031,2.792 0,.251.76-1.524.253-1.524 1.27.506 2.791,2.412 3.935,3.046v-2.158l.507-.632 .255.251 .507-.632c0-.256-.253-.509-.253-.89-.509,0-.763-.253-1.016-.634 1.141,0 1.903-.634 2.665-1.522-.509-.637-.635-1.143-1.269-1.143 0,0 .507-.762.634-.762 0-.251-.127-.507-.127-.888 .381-.507 2.283-3.678 3.299-3.678 .02-.256.15-.89.65-.637m62.19,0c.632,1.016 2.537,9.011 3.806,8.883h1.269c3.553-1.396 3.681-5.328 2.159-8.121-.763-1.395-2.284-2.284-2.921-2.791-.76-.636-1.903-1.271-2.663-.888-.65.379-1.03,2.285-1.66,2.917m14.59-3.425c0-.127-.381-.506-.381-.887-.381,0-.507-.128-.76-.383-.762.89-1.524,3.681-1.396,4.824 .89-.001 2.67-2.541 2.54-3.554-.25-.128-.38-.381 0,0m10.28,60.156c-1.65-.125 6.471,4.062 6.852,5.077-.253,0-.381-.255-.634-.255 0,.762.507,1.524.507,2.284-.507,0-2.791-.632-3.044-.379 0,.507 2.409,2.031 2.79,2.665-.381.507-.888-1.015-.888-.255-.634-.76-4.062.509-4.695-.253-1.396,1.016 2.03,0 2.03.762-.634,0-.253.76-.634.76h-.507l-.637.762c.381.509.89,1.016 1.144,1.522-1.144-.253-.507,1.271-.382,1.78-.506-.255-6.346-9.264-6.852-9.264-.382-.383-2.666-1.271-3.3-1.524l-4.189,3.172c.128-.125 8.123,3.3 11.676,12.564 3.681,9.136 3.047.127 3.3.127l-.507-1.143c.507,0-.509-.381-.128-.381 .254-.507 2.412-1.395 2.919-1.903l-.253-1.775c.381-.509.381-1.016 1.143-1.269 .254,0 2.41-1.524.507-2.031 .253-.253.762-1.143.762-1.65 .888-.634 1.016-1.777 1.016-3.046 .635,0 1.395.506 2.028-.253-.253-.255-.506-1.016-.634-1.524 1.018-.506 1.269-1.269 2.03-2.284-.888-1.015-3.553-.378-4.187.253-.53-.39-8.27-2.93-7.25-2.54"/>
  <path d="m134.77,95.698c-1.649-5.203 5.457-4.821-.254-9.264 .762,6.22-1.776,2.284-3.807,6.092-2.285-1.777 2.156-6.852.635-10.026-.381-.76-3.426-12.689-3.809-8.755 .255,0 0,7.487 0,4.443 .636,5.328-3.299,8.247-3.934,13.196-.253-1.522-.253-14.848-2.537-12.817-1.396,2.92 1.015,12.691-2.284,13.072 1.521.379.254-7.614.126-8.504-1.776-5.33-4.441-8.627-9.138-12.31 5.965,2.92 5.204,15.231 1.904,19.546-.634-4.824-2.791-7.236-6.472-10.154 3.299,2.666 2.791,7.615.381,10.533-.635-5.584-3.427-6.471-5.076-11.167-.762-2.537-1.776-7.105-3.3-9.262-4.061,5.962 3.3,13.83 3.046,19.035 .254,1.522-.635,2.791-2.03,2.917-1.904-5.456-3.426-10.152-9.138-12.181 2.665,2.029 8.122,7.487 4.441,12.181-.38-3.044-4.187-8.247-6.979-7.993 2.411,1.905 5.202,8.249 2.537,11.548-.888-7.487-9.771-10.914-8.502-18.022-.128-.632.507-7.74-1.777-1.647-.888,2.284-.888,5.583-1.142,8.63-.253,4.568 7.233,6.216 5.966,10.531 0,.253-.89.762-1.143.762-.507-4.44-9.518-4.696-12.056-4.313 4.188-.509 6.091,2.663 9.518,5.835-3.68-2.919-8.375-1.141-11.928,0-2.919.636-4.315.762-6.98-.126 4.062,3.174 7.233,3.806 11.548,2.284 1.142-.381 4.823-.634 4.951.89-6.219.76-10.788,1.394-16.118,4.059 2.031-.506 6.091.76 8.375,1.396-1.142.128-3.553,1.396-4.695,1.775-2.031.89-8.122,7.74-6.98,9.646 2.918-5.709 8.883-6.853 13.706-9.518 3.553-2.031 6.854-5.965 10.533-7.996 9.391-5.075 24.239-8.121 35.279-5.456 5.964,1.396 11.294,2.157 16.878,1.522-.127-.634.128-.888.381-1.141 0,.003-.64-.633-.13.763m160.66-12.817c-.891,3.934-6.982,5.837-4.062,5.711 1.902,0 5.33,4.693 4.062,5.075 .76.89-2.665,2.159-5.584,3.046-3.427,0 1.267-1.396-6.093.636-5.583,1.648-6.473-.383-4.949-1.524 3.809-4.315 7.615-6.727 8.375-6.727l1.523-.76 6.73-5.457m22.46,20.299c-2.031-5.456-18.782-5.075-21.7,1.524 .26,12.7 22.21,13.08 21.7-1.52m28.68-8.116c.762,0 4.442-.381 4.695-.381 .507.635.254.888-.128,1.524 1.016-.128 1.524.507 2.031,1.016-.381.506-3.425,2.156.253.76 .128,2.92-.253,3.046-3.044,1.903-.255.256-.762,1.143-.762,1.396-.253-.888-4.442-3.427-5.203-3.427l3.426-.888s.762-1.775-.507-1.141c.51.002.26-1.013-.76-.76m8,18.146c.635.634.888,1.143 1.396,1.522 1.269.637 2.028,3.046 3.172,3.427 .381.127 1.269.127 1.777.127 0,0 .76-.634 1.903-.887-.254-.637-1.524-.637-1.524-1.524-.635-.506-.888,1.269-1.649,1.016-1.65-.888-.254-1.903-2.919-2.918-1.02-.39-1.65-2.42-2.16-.77m5.84,6.09c-2.284-.255.381,1.013-1.269,1.013 0,.762.507,1.524.507,2.284-.507,0-2.791-.632-3.044-.379 0,.507 2.409,2.031 2.79,2.665-1.521-.127-5.709-.509-5.583-.509-1.396,1.016 2.03,0 2.03.762 .635,0-2.412,1.903-1.777,1.522 .509.634 2.031,2.918-2.156,3.302-.381-.383-.381-1.396-1.016-1.78l-.128,6.093c-.634.506 5.077.762 4.696.762-.888-2.158-1.396-1.524 2.284-3.427-.126-.888-.507-2.537.89-3.044 .254,0 2.41-1.524.507-2.031 .253-.253.762-1.143.762-1.65 .888-.634 1.016-1.777 1.016-3.046 .635,0 1.395.506 2.028-.253-.253-.255-.506-1.016-.634-1.524 1.018-.506 1.269-1.269 2.03-2.284-.888-1.015-2.918-.125-3.425.635-.51-.49-1.53.4-.51.9m-29.06,17.51c0,1.65 0,2.159.635,3.936 1.016,0 3.172.381 3.172,1.522 1.016,0 1.649,1.269 3.3,2.159 .127-3.808-4.063-7.742-4.696-9.392-1.9,0-2.79,3.93-2.4,1.77m-20.18,13.84 .126,1.652c1.015.507 2.665.76 3.553,1.269 .509.125 4.062,2.031 4.062,2.663l-1.775-.253c-.509,0-1.016,0-1.905-.507-1.269-.762-3.3-.762-4.315-1.903-.01,0 .63-3.43.25-2.92m1.77,3.55 .128,1.269c1.141,1.27 3.299,3.68 3.425,5.455-.126-2.154-5.075-1.903-4.694-3.423 0-.383-2.539-3.301.126-2.541l.381-.253c0-.253 1.903.762 1.903.381 .256,0-1.395-1.396-1.141-1.396 0,.253.125.381.253.509h-.39m-131.6,92.01c2.158,1.141 6.092,2.793 9.138,4.189 2.156.885 3.553-.891 5.71-1.78 4.695-12.436 13.072-21.444-2.538-30.964 4.949,11.423 6.472,14.85-1.269,23.097-1.39-.14-11.16-1.66-11.04,5.45m91.25,15.48c-3.553,5.97-6.346,4.062-7.614,11.807-1.144,6.471-1.649,15.479-1.522,22.334 0,3.3 2.284,7.357 2.791,7.612 .509.256 2.537.128 7.486.379 3.681.384 8.886,1.396 7.742,6.093 1.27,0 3.681.128 5.456.511-3.806-1.524-4.44-3.048-5.837-5.586-2.412-3.427-5.837-2.281-8.63-4.823-7.995-12.053-1.269-23.221 2.031-35.149 3.934-5.586 12.436-17.26 16.751-22.084-1.53,1.4-16.5,14.21-18.66,18.91m-146.57-34.14c18.655,8.378-46.447-35.789-39.594-13.577 .635,2.031 8.629,1.903 9.897,1.903 8.122,2.793 21.828,7.996 26.142,13.833 .89,1.141 7.488,2.538 5.585,9.264 2.04-6.96-2.4-6.46-2.02-11.41m10.53,4.7c-4.567-.634-6.599-4.947-10.66-4.819 .128,5.582 4.696,5.326 2.032,11.674-.636,1.396-1.65,3.934-5.077,6.092-6.6,2.282-12.817,22.079-16.751,27.661-7.488,10.788-3.427,21.955-.255,21.955 2.92-.123 15.991,2.665 11.675,14.467 2.666-1.396 20.179-3.423 13.453-9.515 .254,1.396.634,3.678-3.936,4.819-3.172.383-5.583,0-6.343-3.551-1.396-5.586-4.951-7.11-9.646-9.898-7.996-4.063 5.202-23.731 14.212-29.568 14.722-9.647 10.788-25.89 22.971-28.934l-4.949-.634-6.72.25m186.04-144.55c-1.65.255-4.188,0-4.949,1.396-.888,1.271 0,1.778 1.649,3.427 1.777.888 3.172,2.284 7.486,1.903 0,0 1.016.253 4.443.762 2.156-1.524.888-1.649.381-2.665l-.381-.509c-2.67-2.03-5.46-3.55-8.63-4.314" stroke="#000" stroke-linecap="round" stroke-linejoin="round" stroke-miterlimit="2.4142" stroke-width=".5626"/>
  <path d="m215.23,77.804c3.556,2.412 5.205-2.791 6.982,3.683 .126,1.141-.509,2.284 2.031,0-2.284-4.824 4.693.504 5.584.504 0-2.156-1.524-3.425-2.921-4.44 .381-.888 3.046-4.947 3.809-5.456 4.187-2.665.888-14.085 6.852-8.249 1.65-6.98-1.649-1.522 4.189-2.918-.128-7.996 6.091-6.727 9.518-6.727 0-.76.633-2.791 4.568-5.456 6.472-4.188 3.807-3.3 12.689-3.427 3.809.255 6.093-2.284 11.676,2.665 5.075-5.331 5.71,3.299 10.405.634 0,3.3 4.443-.507 2.791,3.172 1.143,0 8.758-5.075 8.886-.507 3.806-5.077.634.635 5.328-1.396 4.695-1.649 12.183-10.405 17.641-7.612 4.442-1.905 11.548,2.791 14.467,3.806 6.979,2.41 11.802,10.787 16.497,15.736 0,0 .888,5.205 2.412,6.852 0,.381-.381.888-.256,1.269 1.524,1.652 4.952,3.936 5.077,6.854 .382,0 .763-.509 1.142-.509 3.934,4.062 6.854,8.883 8.758,13.705 .381,1.396 3.553,1.524 3.934,4.189-3.3,5.203-2.031,3.553 1.016,8.121-5.331.127-3.428-.379-1.905,4.062 1.143.888 2.667,2.412 2.667,3.678-.762,0-1.018.383-1.777.383-4.188-3.934 3.427.76-3.934.888 1.269,1.269 3.553,2.029 4.693,3.3-3.679,2.537-5.075,3.171.89,2.41-2.284,1.903-13.832,4.062-4.568,5.839-10.407,1.016-4.949.381-1.905,2.031-1.521,1.775.256,1.775 3.174,2.791 .382,0-9.645,1.777-3.174,1.777-.76.381-1.9.76-3.044.888 0,.381-2.284,3.172-2.539,3.681-.379-2.793-1.65.888-1.65,1.524l-1.9-.764c0,.509 2.028,3.681.125,4.189-.888,0-3.299-1.522-3.172-1.522 0,2.663-8.504,3.299-2.158,3.299-4.44,2.029-.381-.255 1.269,2.157 .254,0-4.44-.256-4.187-.256l-1.778.509c1.65,42.514-12.308,87.056-50.759,109.77 0,5.965 1.013,1.013-6.093,10.912-4.44,9.136-4.314,17.515-5.965,25.89 3.047,6.599 18.401,3.934 12.945,17.26-2.665,6.599-17.641,2.665-22.209,2.788 .253,11.423-17.133,3.555-17.514,3.3-2.79,3.172-12.308,4.316-19.288,2.793-11.421-2.538-19.797-20.811-25-27.916-5.33-3.428-10.407-5.335-15.484-9.393-7.993-9.771-7.233-18.783-7.867-29.823-1.142,0-3.426,2.41-5.203,1.903-1.521-.507-11.294-5.331-13.07-5.837-10.151-4.696-18.655-11.167-29.695-12.057-5.837.89-10.786,10.154-12.564,15.74-1.521,6.344-10.151,11.674-9.01,19.035-1.142,7.74-1.649,8.881-.126,15.863-.762,11.167 14.213,7.105 14.721,17.511 .761,3.555-1.016,4.823-9.011,4.568-5.584.762-8.883,2.409-14.339,3.683-21.32,4.313-16.371.886-22.336,1.013-2.792,3.045-14.975,2.159-18.782,1.396-4.062-.634-6.473-2.158-8.122-4.951-6.853-16.497-5.203-34.388-10.533-51.141" fill="none" stroke="#000" stroke-linecap="round" stroke-linejoin="round" stroke-miterlimit="2.4142" stroke-width="1.1253"/>
  <path d="m305.08,116.89c.128.887 1.269.887 1.269,0-.01-.89-1.27-.76-1.27,0m-1.78-1.65c0,.888 1.142.888 1.142,0 0-.76-1.14-.76-1.14,0m.38,3.05c0,.888 1.144.888 1.144,0 0-1.02-1.14-1.02-1.14,0m-2.03-1.27c0,.762 1.141.89 1.016,0 0-.89-1.02-.89-1.02,0m-.63,2.54c0,.76 1.142.76 1.142,0s-1.14-.89-1.14,0m-1.65-3.43c0,.888 1.141.762 1.141-.125s-1.14-.63-1.14.13m-.64,2.41c0,.888 1.144.888 1.144,0 0-.76-1.14-.76-1.14,0m-.38,2.66c0,.764 1.269.764 1.269,0 0-.88-1.27-.88-1.27,0m-2.67,1.53c0,.887 1.143.887 1.143,0 .01-.76-1.14-.76-1.14,0m.39-2.29c0,.888 1.142.76 1.142-.128-.13-.63-1.27-.75-1.14.13m0-2.66c0,.762 1.142.762 1.142-.125 0-.77-1.14-.77-1.14.12m-3.18,1.27c0,.89 1.144.89 1.144,0 .01-.76-1.14-.76-1.14,0m-.5,5.2c0,.888 1.142.888 1.142,0 0-.76-1.14-.89-1.14,0m.38-2.41c0,.888 1.015.888 1.015,0 0-.76-1.01-.89-1.01,0m-2.67-1.78c0,.762 1.144.89 1.016,0 0-.76-1.02-.76-1.02,0m-1.39,2.8c0,.76 1.144.888 1.144,0s-1.14-.76-1.14,0m.38,2.15c0,.762 1.013.762 1.013,0 0-.89-1.01-.89-1.01,0m-4.06-1.52c0,.888 1.141.762 1.141,0-.13-.76-1.27-.76-1.14,0m26.65-7.11c0,.888-1.142,1.016-1.142.125-.13-.75 1.14-.75 1.14-.12m1.64-1.65c.128.888-1.016.888-1.141.128 0-.76 1.02-.89 1.14-.13m0,2.92c0,.888-1.141,1.016-1.269.125-.12-.89 1.15-1.02 1.27-.13m1.91-1.52c0,.888-1.142,1.143-1.142.127-.13-.64 1.01-.76 1.14-.13m.76,2.54c.128.888-1.143,1.015-1.143.125 0-.77 1.01-.89 1.14-.13m1.4-3.56c.126.89-1.016.89-1.143.128-.13-.89 1.14-.76 1.14-.13m.88,2.42c.128.888-1.141,1.015-1.141.127-.12-.77 1.02-1.02 1.14-.13m.51,2.53c.128.89-1.141,1.016-1.141.128-.13-.89 1.14-.89 1.14-.13m2.79,1.4c.128.888-1.016,1.016-1.144.128 0-.76 1.14-.89 1.14-.13m-.5-2.28c.126.888-1.016.888-1.144.128-.01-.77 1.14-.9 1.14-.13m-.26-2.67c.128.762-1.015.89-1.141,0-.13-.76 1.14-.89 1.14,0m3.3,1.02c.126.888-1.143,1.015-1.143.127-.13-.77 1.02-.9 1.14-.13m.89,5.07c.126.89-1.015,1.015-1.143.128 0-.76 1.14-.89 1.14-.13m-.51-2.28c0,.888-1.015.888-1.141.128-.13-.89 1.02-1.02 1.14-.13m2.54-2.03c-.126.76-1.267,1.016-1.142,0-.13-.76 1.01-.76 1.14,0m1.65,2.66c0,.76-1.141,1.015-1.269.125 0-.89 1.14-.89 1.27-.13m-.25,2.16c.127.762-1.016.888-1.142.128-.01-.89 1.14-1.02 1.14-.13m3.93-1.78c0,.89-1.141.89-1.141.127 0-.89 1.14-.89 1.14-.13"/>
 </g>
</svg>
